<svg xmlns="http://www.w3.org/2000/svg" xml:space="preserve" viewBox="0 0 408 408"><path d="M409 144v265H1V1h408zm-91-56-1-1-1-1-1-1-1-1-1-1-1-1-1-1-1-1-2-1-2-2h-1l-9-7v-1l-8-6h-1l-1-1v-1l-4-1-1-1-12-5-2-1v-1q-20-8-42-10l-20-1-32 4-18 6h-1l-2 2h-4l-32 19q-19 13-30 32l-4 5-1 2-14 25-1 2h-1l-2 7q-7 18-9 38v13l-1 1 1 5-1 2v16q2 23 10 47l1 1v1l8 16 13 21 12 14 8 9 3 2 1 2 3 2q15 13 32 20l1 1h1v1l6 1 1 1h1q28 11 57 10l5-2 2 1 10-1q23-3 45-13l32-20 22-22 11-16 1-1 2-5 7-11 5-15 1-1 8-25v-12l1-23-1-15-2-6c2-1 2-1 1-8l1-2q-5-22-16-44l-12-21-3-4-4-4-7-7v-1z"/><path fill="#52432b" d="m64 268-1-1q-8-22-10-46l1-4 3 16 4 17q2 7 8 8l2 5 9 19 2 3 11 17 3 6-1 7-4-4-18-26z"/><path fill="#d6d8ba" d="M154 51h10l-4 3h-1q-9 2-16 6c-13 9-27 15-37 26l-18 21-3 3-2-1 3-5q12-19 30-32l32-19 4-1z"/><path fill="#625235" d="M217 367h-2l-25-2-10-3 6-1 7 1h11c3 0 8 2 9-4q9 1 15-2l28-7-13 8 3 3-12 4z"/><path fill="#2d281d" d="m217 367 17-3 12-4 7-1 4-2 6-2 2-1 3-2 11-4 15-12 5-4 2-1h1l2 3-31 20q-22 10-45 13z"/><path fill="#78664b" d="M361 175q2 7-1 7l2 6 1 15c-6 2 0 4-1 6h-2l-4-2-1-15-1-14 6-3z"/><path fill="#957c57" d="M54 197v-10l1-1 2-1 5 2 1 29-9-2-1-11 1-2z"/><path fill="#787160" d="m146 356-1-1q-17-7-32-20l-3-3 3-1h2l2 2 12 8 3 2 5 2 6 5 5 2 22 8v2l-15-3-1-1h-1l-1-1z"/><path fill="#6c6652" d="M361 175h-1q-2-7-7-11v-1l-1-7-3-8q5-1 2-3c-5-1-4-4-5-7l-2-6 1-1h1v-2q11 21 16 43z"/><path fill="#81816d" d="M164 51h-8q8-4 17-6l32-4 20 1v3h-29l-2-1-3 1q-15 1-27 6"/><path fill="#cdc2a0" d="m318 89 2 2v1l2 1v3l-3 2-8-9-6-5-20-18-2-2 1-1 2-1 1 1 1 1 8 6 9 7 1 1 3 1 1 1 1 1 1 1 1 1 1 1 1 1 1 1 1 1z"/><path fill="#4e4a3f" d="m362 227-1 9v2l-7 24v-4l-6 1v-3l5-8q9-8 1-12v-2h1l2-1 2-4z"/><path fill="#787160" d="m225 45 1-3q21 2 41 11v3h-2l-26-8z"/><path fill="#876c49" d="m54 214 9 2 2 16-1 7-4-5-3-2-3-16z"/><path fill="#4c453c" d="m304 334-2-3 5-7 7-9 6-5 6 2z"/><path fill="#514636" d="m362 227-3 2-2 4-2-12 5-12h2c1-2-5-4 1-5z"/><path fill="#d5c6a8" d="m67 136 14-25 2-2v1l-1 6-10 17-6 9v-4l1-1z"/><path fill="#47433b" d="m73 284 18 26 4 4 3 4-1 1q-7-6-12-13l-13-22z"/><path fill="#2d281d" d="m154 359 15 3 21 4 25 1-4 2q-28 1-57-10"/><path fill="#8e8577" d="M66 138v4l-1 1-4 19-2 11-2 12h-2l-1-2q2-20 9-38z"/><path fill="#6e675e" d="m347 279-6 12-3 4v1h-6l3-6q8-7 9-15l1-2h2z"/><path fill="#5f594d" d="M332 296h6l-12 16-6-2 5-6c5 0 4-3 5-6z"/><path fill="#6e6555" d="M347 273h-2l2-8 1-1v-5l6-1-1 5v2z"/><path fill="#968d82" d="M346 129v2l-10-16-2-7z"/><path fill="#8a7767" d="m97 319 5 4 3 4-1 2z"/><path fill="#555045" d="M73 284h-1l-8-16z"/><path fill="#a69a88" d="m284 63-1 1-8-3-5-5 11 4h1z"/><path fill="#4e4a3f" d="m347 273 6-8-6 14z"/><path fill="#a69a88" d="m305 77-9-7z"/><path fill="#8a8275" d="m281 60-11-4h-1l-1-2h1z"/><path fill="#52432b" d="M54 214v-11z"/><path fill="#a69a88" d="m296 69-8-5zm26 27v-2l5 6h-1z"/><path fill="#8e8577" d="M54 188v7zm0 9v4z"/><path fill="#968d82" d="m331 104 3 4h-1z"/><path fill="#787160" d="m105 328 1-2h2v5z"/><path fill="#a69a88" d="M331 104h-1l-3-4z"/><path fill="#5f594d" d="m338 295 2-4z"/><path fill="#8a8275" d="m284 63-2-2 4 1z"/><path fill="#685748" d="m146 356 5 1z"/><path fill="#a69a88" d="m268 54 1 2h-2v-3zm41 25-3-1z"/><path fill="#514636" d="M361 238v-2z"/><path fill="#81816d" d="m154 51-1 1z"/><path fill="#8e8577" d="M67 136v1z"/><path fill="#a69a88" d="m317 87-1-1zm1 1h-1zm0 1q0-1 0 0"/><path fill="#8a8275" d="m287 63-1-1z"/><path fill="#a69a88" d="M315 85h-1zm-2-2h-1zm-2-2h-1zm9 11"/><path fill="#644b2c" d="m103 322-5-4-3-4 1-7 6 5 13 12 6 6 5 7-10-4-2-2h-2l-1-2-3-3z"/><path fill="#775f3f" d="m57 232 3 2 4 5 2 6 3 12q-6-1-8-8z"/><path fill="#dfc89a" d="m82 284-2-2-8-20h2l2 1 1 3 4 9 1 4 2 2v4z"/><path fill="#cdb488" d="M82 284h4l6 11 1 6z"/><path fill="#a9906d" d="m93 301-1-6 5 6 2 2 3 5v3l-5-4z"/><path fill="#dbbe8a" d="M74 261h-2l-3-4-2-12 3 3v2z"/><path fill="#cdb488" d="m80 281 2 2z"/><path fill="#ede6b4" d="m88 107 18-21c10-11 24-17 37-26q7-4 16-6v5l-5 2-2 1-17 9-14 9v1h-1l-1 1-1 1-20 18z"/><path fill="#e7d8a3" d="M159 59v-5h1l29-7 2-2h3v1l-3 6h-1l-4 1z"/><path fill="#dfc89a" d="m88 107 10-6-13 19-8 13h-5l10-17 3-6z"/><path fill="#ede6b4" d="m191 45-2 2-29 7 4-3q12-5 27-6M85 110l-3 6 1-6z"/><path fill="#635132" d="m147 352-5-2-6-5-5-2-3-2v-2c2 0 4 3 6 0l10 4 13 6 16 6 19 2 19 1h2c-1 6-6 4-9 4l-11 1-7-2-6 1-10-2-1-2-20-8z"/><path fill="#4d3c21" d="m253 359-7 1-3-3 13-8 3-1 2-1 3-1q7 2 9-5l11-7 2-1 5-1 1 4-3 3-21 13-3 2-2 1-6 2z"/><path fill="#d8d0b2" d="m264 346-3 1-2 1-3 1-28 7q-6 2-15 2h-2l-1-1 1-2h4l32-7 2-1 9-3 4-2 9-5 4-1v3l-2 2z"/><path fill="#685748" d="m170 360 10 2 10 3-21-3z"/><path fill="#5e5346" d="m268 352 21-13 3-3h2l-15 12zm39-28-5 7h-2zm-8 8-4 4h-1zm-42 25 6-2zm-4 2 4-2zm12-5 3-2zm-2 1 2-1zm37-24-1 1z"/><path fill="#5c462a" d="m360 209-5 12-7-2v-4l-1-28-2-2-6-29v-1l6 5 5 3 3 15q3 7 2 14l1 15zm-1 3s-1 0 0 0"/><path fill="#ae9c78" d="m354 178-3-15h2v1q5 4 7 11z"/><path fill="#594124" d="m77 133 9-13 2 1-6 15-4 7-3 6-1 5v1l-8 25q-3 26 1 50v4l-2-2-2-16 1-43 4-17z"/><path fill="#a88b65" d="m64 173-2 13-5-1 2-12z"/><path fill="#6e5c38" d="m170 360-22-8 2-2 20 8z"/><path fill="#735e40" d="M128 339v2l-12-8zm8 6 6 5z"/><path fill="#8a7767" d="M111 329v2l-2 1-1-1v-3z"/><path fill="#735e40" d="m128 341 3 2zm-14-10 2 2z"/><path fill="#e1d9b1" d="m326 100 4 4 3 4 3 7 9 16h-1v1l2 6c1 3 0 6 5 7q3 2-2 3l-3-1-10-22-10-16-2-3-3-4-2-3 3-3z"/><path fill="#cfbe9c" d="m346 147 3 1 3 8 1 7h-3z"/><path fill="#c7a878" d="m225 45 13 3-3 6-12-1-4-1 1-6 4-1z"/><path fill="#dfc89a" d="m223 45-3 1h-13q-7-1-8 6h-6l-2 1 3-7 2-1z"/><path fill="#ede6b4" d="m196 45-2 1v-1z"/><path fill="#665132" d="m346 147 4 16-5-3-6-5-2-6q3-4-1-3l-12-24-13-18-2-2-3-4-3-2-2-5 10-1 8 8 2 4 3 4 2 3 1 9q2 7 9 7z"/><path fill="#7e6543" d="m285 66 20 18-9 3-1-1-1-1-12-10z"/><path fill="#8a704c" d="m285 66-3 9-5-2-6-3v-2q5-2 4-7l8 3z"/><path fill="#775f3f" d="m296 87 9-2 6 4-11 2z"/><path fill="#372816" d="m347 265-2 8-1 2-9 15-3 6-2 2-5 6-5 6-6 5v-5l3-8 2-3 1-1 10-16q5-1 2-4l4-8 2-5 2-6 8-3v5l-2 2z"/><path fill="#45341e" d="m348 256-8 3 3-14 2-9 2-5 7 1v4l-2 10 1 2z"/><path fill="#594124" d="m354 232-7-1 1-12 7 2 2 12-2 1z"/><path fill="#514636" d="m353 248-1-2 2-10q8 4-1 12m1-16 1 2h-1z"/><path fill="#aa8d62" d="m235 54 4-6 26 8q0 6-4 4l-10-1h-2z"/><path fill="#957c57" d="m251 59 10 1q4 2 4-4h5l5 5q1 5-4 7z"/><path fill="#b59970" d="m65 232 2 2 1 6 3 7v1h-1l-3-3-2-6z"/><path fill="#45341e" d="m317 302-3 8v5l-7 9-7 7-1 1-5 4h-2l-1-4v-1q4 0 1-3l1-1 3-2 2-3 1 1q5 0 3-4l2-1q4 0 2-3z"/><path fill="#cdb488" d="m77 133-9 23-7 5 4-18 1-1 6-9z"/><path fill="#b59970" d="m61 162 7-6-4 17h-5z"/><path fill="#585145" d="m335 290 8-15q0 8-8 15"/><path fill="#514636" d="m325 304 5-6c-1 3 0 6-5 6"/><path fill="#45341e" d="m346 263 2-2v3z"/><path fill="#585145" d="m346 263 2 1-1 1z"/><path fill="#735e40" d="m103 322 5 4h-2zm8 7-3-1v-2z"/><path fill="#5e4e37" d="m128 338-2-1-5-7-6-6v-2l28 17q7 4 15 6l1 3-2 1-13-6-10-4z"/><path fill="#7e6748" d="M115 322v2l-13-12v-4l4 2 2 3 1 2 2 2z"/><path fill="#291c10" d="M71 248v-1l-3-7-1-6v-4q-4-24-1-50l8-25-2 13-1 15v3q-5 2-2 4v16l1 17 2 10 5 17 2 1 2 6q2 13 11 25h1l-1 2-1 3 7 10-1 4-5-7-6-10-1-3-1-1-2-3-1-3-4-9-1-3-4-12z"/><path fill="#b59970" d="m72 250 4 12-2-1-4-11zm5 15 4 9zm5 13 2 2zm2 4 2 2h-2z"/><path fill="#211b11" d="m97 301 1-4-7-10 1-3 3 2 11 13q2 9 10 14l1-6-1-19-2-6-1-3h1l4 6c2 8-1 17 5 25l-5-2c2 5 6 4 9 5l6 11-6-2-1 2 11 7 11 5 4 2 9 5-3 1q-8-1-15-5l-28-17-4-5-2-2-1-3-2-2-7-7z"/><path fill="#291c10" d="m99 303 7 7-4-2z"/><path fill="#594124" d="M72 250h-2v-2h1z"/><path fill="#5c462a" d="M191 52h2l1 1-5 3q-19 2-37 9l-17 9v-3l19-10 5-2 27-6z"/><path fill="#644b2c" d="m88 121-2-1 12-19 20-18 2 2-7 9c-12 6-17 18-25 27"/><path fill="#6e5c38" d="m120 85-2-2 1-1 2-1 1-1 13-6-5 5z"/><path fill="#644b2c" d="m120 81-1 1z"/><path fill="#e7d8a3" d="m154 61-2 1z"/><path fill="#dfc89a" d="m190 52-4 1z"/><path fill="#826b56" d="m157 349 2-1 10 3 3 1h3l2 1 3 1h2l3 1 7 1v1l-19-2z"/><path fill="#a88b65" d="M192 357v-1h10l8 1 1 1z"/><path fill="#644b2c" d="m129 337 5 2c-2 3-4 0-6 0v-1q0-1 0 0z"/><path fill="#cdc2a0" d="m292 327-1 1-5 4-2 1-9 5v-3l16-11z"/><path fill="#625235" d="m264 346 8-5q0 7-8 5m11-7 9-5-11 7zm11-6 5-3v2zm-27 15 2-1z"/><path fill="#241d10" d="M202 356h-10l-7-1-3-1-2-1-3-1h-4l-2-1h-2l-9-3-2-3 3-2 13 4 6 1 15 3 8-3 5 1h2l6 1 1 1-2 4h-5z"/><path fill="#3a2d1e" d="m215 355 2-4 14-2q6 0 5-4l8-6 3 1v1l-1 2 5-2h3l3-1 10-5 4-2v4l-9 5-4 2-9 3-2 1zm26-9s-1 1 0 0"/><path fill="#342c1d" d="M271 337v-4l3-3 3-2h1l4-3 3-3 7 1v1l-1 1-16 10zm14-13s-1 0 0 0"/><path fill="#826b56" d="m202 356 8-1v2z"/><path fill="#47412f" d="m258 344 3-2zm-11 4 2-1z"/><path fill="#231f15" d="m339 156 6 29 1 30-2 16-6 18 1 3-1 3-4 1 3-25-5-8v-5l8 6 1-1-8-9q-5-3-4-9l3-14c2-4 7-5 6-10v-1l-1-11-3-13zm0 47h-3l-4 5q1 3 4 4 2 1 5-3 3-3-2-6"/><path fill="#272016" d="M339 156h-5l-2-3q-4-17-15-32-6-7-6-17l13 18 12 24 1 3 2 6z"/><path fill="#725d49" d="M346 215h2z"/><path fill="#8a7767" d="m346 216 1-1 1 4-2 12-1 4-1-4z"/><path fill="#514636" d="M359 212q-1 0 0 0"/><path fill="#2f2821" d="m71 183 1-15 2-13v-1h3l1 1v4l-1 5-1 2 2-2 1-5 1-3 1-1 3 1-5 18 6 2v2l-1 4-2 2h-1l-2-5-2 5h-2v-1l-1-5h-2l1 5zm4-12-1 4 1 1 2-6-2-2zm5 6"/><path fill="#32251a" d="M88 121c8-9 13-21 25-27v1l-1 4-9 8-15 21-6 8z"/><path fill="#2f2821" d="m76 149 2-6h3l-2 9-2-1z"/><path fill="#32251a" d="M81 143h-3l4-7zm-6 6 2 2v3h-3z"/><path fill="#775f3f" d="M336 125q-7 0-9-7l-1-9zm-12-19-3-4z"/><path fill="#dbbe8a" d="M199 52q1-7 8-6h13l-1 6v1h-3l-5-1z"/><path fill="#665132" d="m235 54 14 5v2l-27-6 1-2z"/><path fill="#5c462a" d="m223 53-1 2-3 1v-3z"/><path fill="#3a2d1e" d="m199 52 3 1q-5 0-5 5l-3 2h-2q-4-4-5 1l-1 1h-3l1-3-1-1-5 4-10 2-8 4q-6 0-10 5l-3 1h-1l-14 8-2-3 5-5 17-9q18-7 37-9l5-3v-1z"/><path fill="#211f1a" d="M311 104q0 10 6 17l6 16q1 9-5 14 7-1 6 5h-1l-3-3-1 1v3q-4-4-4-8l4-7-5-1q1-5-3-9l-7-9-1-10q5-3 0-5-6-3-4-8v-5l4 1 3 2 3 4z"/><path fill="#272016" d="m303 96-4-1v5q-2 6 4 8 5 2 0 5l-7-1-1-19h-2v3h-1l-2-4v-1c5 0 2-3 3-5h2l1 1 4 4zm6 6-3-4z"/><path fill="#5c462a" d="m337 149-1-3q4-1 1 3"/><path fill="#272016" d="m306 98-3-2z"/><path fill="#47412f" d="m294 85-1 1-13-8-3-5 5 2z"/><path fill="#2c2015" d="m277 73 3 5-2 2-5-1-1-3h-7v-3l2-3h4z"/><path fill="#47412f" d="M271 70h-4l-6-3-12-6v-2h2l20 9z"/><path fill="#b5a78e" d="m338 255 1-3 4-7-3 14-2 6-3 5-3 8-2 4-11 16-1-1 5-10z"/><path fill="#bcb298" d="m291 325 1-1v-1l4-4 3-3 9-9 8-8h2l1 1-2 2-11 13-3 3-1 1-3 3-1 1-3 2-2 2z"/><path fill="#45341e" d="m336 270 1-5zm-6 12 2-4q3 3-2 4"/><path fill="#bcb298" d="m318 297 1 1v1l-1-1z"/><path fill="#342c1d" d="m343 245-4 7-1-3 6-18 1 5z"/><path fill="#594124" d="m68 240 3 7z"/><path fill="#4d3c21" d="M299 323q0-3 3-4 2 4-3 4m5-5 2-3q2 3-2 3m-13 13v-2l1-1q3 3-1 3m5-6 2-2z"/><path fill="#5e4e37" d="m109 315 2 2z"/><path fill="#291c10" d="m106 310 2 2z"/><path fill="#282721" d="M93 282v-6c3-3 8-4 4-9l1-3 3 4 2-1-6-8-7-11-5-2-5 5-2-1-5-17-2-10h1l5 1 3-3 2 2-5 5 1 2 7-5 2 1v7q0 9 10 11 1 10 7 16 1 5 5 3v11l-4 4v8l3 4v6l-5-7c-3-3-4-8-9-7"/><path fill="#1f1e1a" d="m79 251 5-5q3 0 5 2l7 11 1 5-1 3-6 7-9-17zm12 10 1 2h1z"/><path fill="#1e201b" d="m71 223-1-17 2 1q-1 9 6 6l1 1-1 3-3 4z"/><path fill="#282721" d="M69 192v-2l3-3 11 12-1 2-8-5-1 1z"/><path fill="#37342c" d="M93 282c5-1 6 4 9 7l5 7-1 3-11-13-2-2z"/><path fill="#4e4a3f" d="m83 198-11-11-1-1v-3h4v1l3 2 2 4 4 5z"/><path fill="#6e6555" d="m81 257 9 17 1 2 1 6q-9-12-11-25"/><path fill="#1e201b" d="m69 192 4 5 1 3v2l-2 2-1 1-2 1zm2-6-3 3q-3-2 2-4"/><path fill="#151714" d="M123 310c-6-8-3-17-5-25l-4-6v-4l1-2 5-1h1v4l1 3q7 3 6 10l1 8q1 7 6 2l18 2q7 2 16-1h4l11 1q6 1 10-4l2-3v-1q7 1 6 6l-2 16-2 2-9-6-2-2-11-2-5 3-7 1-5-4h-11l-4 2-1 1z"/><path fill="#30261f" d="M114 276v3h-2l-2-3v-33l-1-20v-36l-1-5h-1l-1-1v-3l4 1v-7h2v95l2 5z"/><path fill="#323129" d="m152 338-4-2-11-7-4-5-6-11h5v2l1 5 3-3 3-4q6 11 17 9 10-2 12 7v1q-5-5-14-5l-11-1-4-7-4 7 8 4 10 6 9 5z"/><path fill="#725f50" d="m106 299 1-3v-8l7-6 2 6 1 19-1 6q-8-5-10-14"/><path fill="#626159" d="m139 313-3 4-3 3-1-5v-2h-5c-3-1-7 0-9-5l5 2 32 1-8 2z"/><path fill="#423f39" d="m152 338 10 1-8-5 23 6 1 2-13-2v1l10 5-1 1-13-4z"/><path fill="#787160" d="m114 282-7 6-3-2v-5l1-3 3-3 2 1 2 3z"/><path fill="#37342c" d="m133 324 4 5v2l-11-7 1-2z"/><path fill="#423f39" d="M137 331v-2l11 7z"/><path fill="#2f2821" d="m130 79 2 3v2q-11 1-13 10v1l-1 1-5-1v-1l7-9z"/><path fill="#5e4e37" d="m182 354 2 1zm-13-3h2zm4 1h2zm4 1h2z"/><path fill="#1c1c14" d="m285 322-3 3-4 2-1 1h-2q-2-4-4 0l-5 2-1 1-21 7-12 3 4 4q0 4-5 4-7-3-15 1l-6-1 8-10q5-5 12-4l13-2 1-2 2-3 1-1 2-2h6l12-2 2-4 1-1h4l6 4 1-7 4-2z"/><path fill="#1a1a15" d="m178 342-1-2-24-6-10-6v-4l11 1q8 0 14 5 2 4 7 4h15l3 2 5 6 2 2 3 4-8 3-14-4-1 1-6-1 1-1z"/><path fill="#27261e" d="m203 348-3-4 3-4h2v1l2 2 10-13h1l4-4q5-7 14-6l17-1 1 4-7 1-1 2-1 2q-8 3-11-1l-8 3v1h18l-2 2-18-1-4 1-13 16zm34-21s0-1 0 0"/><path fill="#504d46" d="m208 349 12-16 4-1 18 1-12 2q-8-1-12 4l-8 10z"/><path fill="#3e3a31" d="m180 348 1-1 14 4z"/><path fill="#4c453c" d="M216 350q8-3 15-1l-13 2z"/><path fill="#6e675e" d="m244 338 21-7-5 4-5 2-5 2-3 1z"/><path fill="#47433b" d="m260 335 5-4 1-1 5-2 3 2-3 3-4 2-4 2z"/><path fill="#363225" d="m244 338-8 6-4-4z"/><path fill="#47433b" d="m250 339 6-2 1 3-3 1h-3z"/><path fill="#47412f" d="m257 340-1-3 4-2 3 2zm-6 1-5 2 1-2z"/><path fill="#363225" d="M251 341h-4v-1l3-1z"/><path fill="#47412f" d="m263 337 4-2zm-10 4q1 0 0 0"/><path fill="#363225" d="M241 347q-1 0 0 0"/><path fill="#1c1b15" d="M285 322v-9l9-4 2 3 2 4-3 3-4 5 1-1z"/><path fill="#433d33" d="m278 327 4-2z"/><path fill="#5b574e" d="M275 328h2l-3 2z"/><path fill="#1c1b15" d="M285 324q-1 0 0 0"/><path fill="#5b574e" d="M278 327h-1z"/><path fill="#342c1d" d="m318 297-1 1-2-7 7-11 7-16 6-9 4-1-15 32z"/><path fill="#3e3a31" d="m332 223 5 8h-3l-5-4h-1v-1l-3-2q-7-8-6-17v-7q0-6 5-8l1 2c-5 7-3 13-2 20zm-5-1s0 1 0 0"/><path fill="#2d281d" d="m332 153 2 3 3 13-1 1-4-1-7-19q-1-4 3-4z"/><path fill="#4e4a3f" d="m332 191-3 14q-1 6 4 9l8 9-1 1-8-6-5-4-1-1v-17l2-2 1-2z"/><path fill="#555045" d="M339 204q5 2 2 5-3 4-5 3-3-1-4-4 0-2 4-5z"/><path fill="#5b574e" d="m334 256-6 9 4-16 4-13h2z"/><path fill="#342c1d" d="m327 214 5 4v5l-9-9z"/><path fill="#aaa497" d="m332 191-3 1 4-5 5-6c1 5-4 6-6 10"/><path fill="#2d281d" d="m338 181-6 5 1-4q0-5 4-5z"/><path fill="#585145" d="m338 180-1-3-1-7h1z"/><path fill="#3e3a31" d="M338 236h-2l1-5q4 1 1 5"/><path fill="#8a8275" d="m332 153-4-7-5-9-6-15a86 86 0 0 1 15 31"/><path fill="#212324" d="M85 178v-2l5-8q9 0 8 8l1 2v20l3 4v8l-1 2-2-3v-4l-8-1v-8l-4-4-1-1-2-9z"/><path fill="#3a3731" d="m90 168-5 8-6-2 2-5 5-12 4-6 2 1-1 7z"/><path fill="#40382d" d="m86 191 1 1v4h-1l-2-1-4-5-2-4 1-1 2-1h1z"/><path fill="#837a6d" d="m90 151-4 6-5 12 3-13 4-7z"/><path fill="#363229" d="m88 149-4 7-2-1v-6l1-1zm-14 22 1-3 2 2-2 6-1-1z"/><path fill="#3a3731" d="m86 191-4-7 2-2zm-5-7-2 1-2-1 2-5z"/><path fill="#363229" d="M75 183h-2l-1-5h2z"/><path fill="#433d33" d="m82 149-1 6-1 1v-2z"/><path fill="#363229" d="m78 164-2 2 1-2zm-1 20 2 1-1 1-3-2z"/><path fill="#433d33" d="m80 156-1 3h-1v-3z"/><path fill="#423f39" d="m78 159-1 5h-1z"/><path fill="#363229" d="M80 154h-2l-1-1v-3l2 1z"/><path fill="#3a3731" d="m85 178-1 4zm-5-1"/><path fill="#423f39" d="M78 155h2v1h-2zm2-1-1-2 2-9 1-7 6-8 15-21 7-4 1 1v-2l1-3 1-4 4 1q-6 6-2 11l-1 5-7-3h-1l-4 4-2 3-3 5-1 2v2l-11 18 3 5h-1l-3-2-1 2-1 1z"/><path fill="#2f2821" d="m110 103-7 4 9-8z"/><path fill="#2c2015" d="m249 61 12 6-2 2-12-3-2-1-2 1h-4l-4-5-10-2q-6 2-1 5l1 3-2 1-3-4-5-6h-3l-4-1h-2l-8 2-1-1q0-5 5-5h4q3 5 5-1l5 1 3 3h3z"/><path fill="#5c462a" d="M211 52q-2 6-5 1z"/><path fill="#3a2d1e" d="m219 56-3-3h3z"/><path fill="#433827" d="m178 62 5-4 1 1-1 3h3v2h-1l-7 10 1 7-4 5-3-1v-2l2-4-2-6 2-2z"/><path fill="#8a8275" d="m174 71-2 2h-2q0-4-4-1l-4 1-1-5 7-3q6 0 6 6"/><path fill="#4c453c" d="M132 84v-2l13-8-2 5-9 6z"/><path fill="#837a6d" d="m143 79 3-5h1l1 1 2 1 2 6-1 1h-1l-2 2z"/><path fill="#585145" d="M174 71q0-6-6-6l10-3z"/><path fill="#555045" d="m160 68 2 5-3-1-1-2-1 1v3l-7-1q4-5 10-5"/><path fill="#433827" d="M187 61q1-5 5-1v1l-2 1zm10-3-2 3-1 1v-1l-1-2z"/><path fill="#342518" d="m187 61 3 1v2h-4v-2z"/><path fill="#555045" d="M150 75h-2l-1-1 3-1z"/><path fill="#968d82" d="m194 60 1 2-2 1-1-2v-1z"/><path fill="#141718" d="M314 142h5l-4 7q0 4 4 8l2 8 1 3v1q-2 5 3 7l1 5c-4 4-4 9-9 11l-2-5v-8l-3-4-1-2-1-6q-5-6-4-14v-3l1-1q5 1 4-3z"/><path fill="#3a3731" d="m321 165-2-8v-3l1-1 3 3 1 2v-2q1-6-6-5 6-5 5-14l5 9q-4 1-3 4l7 19-1 2-4-6-3-5-1 8z"/><path fill="#433827" d="M292 96v17l5 8q2 5 6 2l7 9-6-2h-1l-2-2-2-1-3 2-4-2-3-5 1-5z"/><path fill="#585145" d="m305 130 6 2q5 4 3 9l-1 2-2 3-4 3-1 1-3 3-4-1 1-3 3-3 1-2c3-4 6-7 1-12z"/><path fill="#3e3321" d="M304 123q-4 3-6-2l-2-9 7 1zm-5-8"/><path fill="#282721" d="M324 156v2l-1-2z"/><path fill="#181b17" d="m279 80 1-2 13 8c-1 2 2 5-3 5l-4 5h-3l-2-10z"/><path fill="#8a7767" d="m296 112 2 9-5-8V93h2z"/><path fill="#a69a88" d="m292 96-1 21-1-18v-6z"/><path fill="#27261e" d="m290 92-1 4h-3l4-5z"/><path fill="#211f1a" d="M265 76h2q1 5 3 6l8 4v3l-1 1-3-1q-7-5-8 4v11l-2 1h-1c-1-3 2-7-3-8l1-4 3-7-2-6z"/><path fill="#433d33" d="m265 76-3 4-3-4-1-2-1-1-1-1h-2v-1l-3-1-5-1-2-2v-1h3l12 3 6 4z"/><path fill="#5b574e" d="m278 86-8-4-3-6h5l1 3 5 1 3 6z"/><path fill="#211f1a" d="m265 73-6-4 2-2 6 3z"/><path fill="#40382d" d="m321 281-7 11-7 8q-4 5 1 7l-9 9-3-4 5-4 3-6v-13h1l2 4 6-9h2l1-1 1-1 1-1v-1h1z"/><path fill="#211b11" d="M308 307q-5-2-1-7l7-8 1 7z"/><path fill="#342c1d" d="m292 323 3-5z"/><path fill="#181c1c" d="m99 209 1 3v24l2 7q5 7 6 14v6q-4 2-5-3l-7-16-1-3q-8-5-7-13l3-11v-1l3-2-3-2v-8l8 1v1z"/><path fill="#47433b" d="m71 223 3-2 3-4 1-3 5-3 2-1v8l-1 1q-4-2-5 2l-3 3z"/><path fill="#aaa497" d="m85 219 1-2 2-2 2 1v1l-6 7-7 6-1-2z"/><path fill="#404142" d="M88 228q-1 9 7 13l1 3q-9-2-10-11v-6z"/><path fill="#2e2e27" d="m88 228-2-2-2-1 6-8h1z"/><path fill="#423f39" d="M108 263v-6h2v19l-2-2z"/><path fill="#626159" d="m96 244 7 15q-7-4-7-15"/><path fill="#2d2821" d="m92 276-2-2 6-7c4 6-1 6-4 9m5-12-1-5 6 8-2 1z"/><path fill="#25231e" d="m84 219-3 4-2-2q1-4 5-2"/><path fill="#37342c" d="m104 286 3 2v2zm0-8v3z"/><path fill="#2d2821" d="m91 260 2 3h-1z"/><path fill="#5b574e" d="m72 205 8 1-3 8q-7 3-6-6z"/><path fill="#2e2e27" d="m77 213 3-8 3-2v8l-4 3zm0 4-3 4z"/><path fill="#3a3731" d="M71 205v2l-2-1zm11-2-2 2-8-1 2-2v-2l-1-3 1-1z"/><path fill="#6e675e" d="M83 203v-4l1-4 2 1-1 14-2 1z"/><path fill="#282721" d="m73 197 1 3z"/><path fill="#2d2821" d="M135 299q-5 5-6-2l-1-8q1-7-6-10l-1-3 6 1 1-8h-2l-5 3h-1l-6-3v-71l4 1 1 6v9l-1 40q3 6-1 12l2 1 4-5 8 6c0 11 0 11 6 12l20 1v1l-1 1-4 1-5-1-2 1c-12-3-14-1-14 9v2q0 4 4 3z"/><path fill="#2d2319" d="M135 299v-6l5 2 7 3q5 0 6-3 8 6 15 2l3-2v-2l1-1c3 3 4 8 10 5l-8-7 4-3q3-5 7 0 2 4 7 7l6-12 6 2h1l-1 3q-7-1-8 6v1l-2 3q-3 5-10 4l-11-1h-4q-9 3-16 1zm57-3s0 1 0 0"/><path fill="#211c14" d="M196 293q1-7 8-6l1 11v22l-1 9-2-1-1-2-12-14v-1l9 6 2-2 2-16q1-5-6-6"/><path fill="#2e2e27" d="m155 311-11-1v-1l15-2 5 4 2 3 5-1 14 1v3h-14l-6 1-5-2z"/><path fill="#787160" d="m121 272 5-3h2l-1 8-6-1z"/><path fill="#8e8577" d="m171 313-5 1-2-3 7-1h16l2 1v1z"/><path fill="#211c14" d="M187 310h-16l5-3z"/><path fill="#626159" d="m159 307-15 2 4-2z"/><path fill="#211b11" d="m114 269 6 3-5 1-1-1z"/><path fill="#211c14" d="m194 297 2-3z"/><path fill="#2f2821" d="m118 199-4-1-2-3v-2l1-18 1-18 2 5 2 10z"/><path fill="#5b534b" d="M114 269v3l-2-5v-61h2z"/><path fill="#47433b" d="M110 257h-2q-1-7-6-14h1l1-2 4 1 2 2zm-1-11s0 1 0 0"/><path fill="#433d33" d="M102 204v-4q7-1 4-9l-1-4 1-2 1-3h1v23h-1c-1-5-3-2-5-1"/><path fill="#2b2119" d="M112 172h-2l-1-3v-13l3 1z"/><path fill="#433d33" d="m109 169 1 3v7l-4-1h-1c0-3 5-7-2-7z"/><path fill="#626159" d="M108 205v-23l1 5-1 35z"/><path fill="#968d82" d="M112 172v-16l-2-6 3 1 1 6-1 18h-1z"/><path fill="#6e675e" d="M112 175h1l-1 17z"/><path fill="#787160" d="M105 178v3l1 1-2 3q-4-4 0-7"/><path fill="#6e675e" d="M114 206h-2v-11l1 3z"/><path fill="#27261e" d="M168 329q-2-9-12-7v-6l5 3h23l4 3 4 5 2-4 3 2 1 8-1 1-1 3h-1l-2-1-3-3-8-1v-2l3-1-2-1z"/><path fill="#1f1e1a" d="M156 316v6q-11 2-17-9h9q6-1 8 3"/><path fill="#5b574e" d="m168 329 15-1 2 1-3 1h-9v2l9 1h8v1h-15q-5 0-7-4zm4 3s-1 0 0 0"/><path fill="#1c1c14" d="M143 324v4l-8-4 4-7z"/><path fill="#423f39" d="M156 316q-2-4-8-3l7-2 5 6v2z"/><path fill="#211f1a" d="m178 342-2 4-11-5v-1z"/><path fill="#404142" d="M119 94q2-9 13-10-1 4 2 7-1 10-11 10h-3z"/><path fill="#504d46" d="M115 107q-4-6 3-11l1-1v5l-3 2z"/><path fill="#aaa497" d="M119 100v-6l1 7v12l-1 10z"/><path fill="#555045" d="m294 309-9 4-4 2-7-1c-8-1-16-4-21 5l-17 1q-9-1-14 6l-4 4v-1q3-10 14-12h14q6 0 9-4l5-2h19q8 1 14-4l1 1z"/><path fill="#5b534b" d="m275 314 6 1-1 7-6-4-1-3z"/><path fill="#4c453c" d="M244 331h-18v-1l8-3q3 4 11 1h1z"/><path fill="#555045" d="m248 324 6-1h12l-11 2h-6z"/><path fill="#37342c" d="m275 328-1 2-3-2q2-4 4 0"/><path fill="#555045" d="m273 315 1 3h-4zm-4 4-2 4h-1v-3l1-1z"/><path fill="#4c453c" d="m247 324 2 1-2 2-1-1z"/><path fill="#555045" d="m246 326-1 1h-1zm24-8-1 1z"/><path fill="#37342c" d="m197 334 1-1 6 3v3l-1 1-3 4-2-2-3-5h1z"/><path fill="#3e3a31" d="m195 337 3 5-5-6zm-5-3 3 3z"/><path fill="#363225" d="M204 339v-6h4l13-15v-1l1-1c8-3 16 0 24-2l5-2q4-4 8-3h9v2h-8l-5 2q-3 4-9 4h-14q-11 1-14 12l-1 1-12 10z"/><path fill="#211f1a" d="M270 318h-1l-3 1v3l-1 1h-11l-1-4c5-9 14-6 21-5l-1 1z"/><path fill="#626159" d="m205 340 12-10-10 13-2-2zm-1-1h-1z"/><path fill="#4c453c" d="M237 327q0-1 0 0"/><path fill="#786754" d="M294 309v-2l1-3v-1l6 5-5 4z"/><path fill="#626159" d="m321 281 3-7 5-9z"/><path fill="#171915" d="m315 187 2 5c5-2 5-7 9-10l1 5-3 5q-6 2-5 8v7q-1 9 6 17l-1 2-1 6-3 5-4 2-2-6-2-4-1-8 1-22 2-5z"/><path fill="#363229" d="m337 231-1 5-4 13-4-3v-6l4-2 2-7z"/><path fill="#27261e" d="m334 231-2 7-4 2-3-4 1-9 2-1v1h1zm-5 2-1 2h1l1-2z"/><path fill="#2d2319" d="M325 214h-2c-1-7-3-13 2-20h1v19z"/><path fill="#40382d" d="m326 194-1-2 3-5 6-5-1 5-3 5-1 2z"/><path fill="#363229" d="m328 226-2 1-2-1 1-2zm-1-4q0 1 0 0"/><path fill="#282721" d="m333 182-6 5-1-6-1-5-2-7v-1l1-8 3 5 4 6 1-2 4 1 1 7q-4 0-4 5"/><path fill="#3e3a31" d="m325 214 1 1z"/><path fill="#aaa497" d="M326 194h2l-2 2zm2 0 1-2z"/><path fill="#1e201b" d="m328 246 4 3-4 16-5 9q-8-4-3-11l4-6-2-1-7 10-1-1 4-11h-1l-3 2-1-1 3-7h1l1 4c4-2 4-9 10-6"/><path fill="#2d2d2f" d="m109 169-6 3-4 6-1-2q1-8-8-8l1-9v-7l-1-1-2-2v-1l-3-5 11-18v5c0 3-2 7 3 9l2 6 2 2 2 1 4 8z"/><path fill="#5f594d" d="m99 178 4-6c7-1 2 3 2 6q-4 3 0 7v2l-3 3-3 2z"/><path fill="#3e3a31" d="m100 220 1-8 1-2h1l1 2 1 7 1 1v2q-5 4-6-2"/><path fill="#504d46" d="m90 216-1-1v-18l2-1v20z"/><path fill="#3e3a31" d="m99 192 3-1 1 3-1 6v2l-3-4z"/><path fill="#665a4f" d="M103 210v-6c2-1 4-4 5 1z"/><path fill="#3a3731" d="m91 196-2 1-2-1v-4z"/><path fill="#837a6d" d="m90 151 1 1z"/><path fill="#25231e" d="m87 196 2 1-1 18-2 2-1-7 1-14z"/><path fill="#433d33" d="m83 148 1-2 3 2z"/><path fill="#383737" d="M99 139c-5-2-3-6-3-9v-8l1-1 3-5 3-1c2 2 0 7 5 7l-5 8-4 5z"/><path fill="#504d46" d="m107 109 7 3v3c-3 0-8 3-9-3l1-3z"/><path fill="#968d82" d="M115 115v-8l1-4 1 13-1 4h-1z"/><path fill="#b6ab99" d="m106 109-1 3-2 1-1-1zm-6 7-3 5zm3-1-3 1 2-3h1z"/><path fill="#504d46" d="M110 103v1z"/><path fill="#b6ab99" d="m97 121-1 1z"/><path fill="#433827" d="m223 68 2-1c3 8-2 13-6 18l-2 2-3-6-5-2v-1l-2-7q-1-3-3 0l-3 12-4 3-1-2-6-6-1-4 3-2 1 2 2 1 4 2 1-4 5-8h2l3 8 10 2 3-3z"/><path fill="#372816" d="M224 64q-5-3 1-5l9 8 1 2 2 3v1l-1 3-3 10-1 4-8 3 3-5q5-4 5-11 0-11-8-13"/><path fill="#d5c6a8" d="M224 64q9 2 8 12l-1-1-10 12-2-2c4-5 9-10 6-18z"/><path fill="#837a6d" d="m210 73-3-8h-2l-5 8-2-1-2-1 2-3 2-1 1-1 2-2 1-1 4-1-3-2v-1l1-2 2 1 1 6 1 1 1 1 1 1 3 3z"/><path fill="#837a6d" d="M212 58h3l5 6-4 6h-1l-3-3-1-1-1-1-1-1 3-1z"/><path fill="#534b41" d="m234 67-9-8 10 2 4 5v1z"/><path fill="#6e6555" d="m216 70 4-6 3 4v4l-3 3z"/><path fill="#3a2d1e" d="m206 57-1 2c-4 1-5 6-9 3l2-3z"/><path fill="#725f50" d="M239 67h3l1 3v1l-2 1-1 1h-3l-2-3 2 1h1z"/><path fill="#3a2d1e" d="M212 58v5l-3 1-1-6z"/><path fill="#534b41" d="m243 69-1-3h2v1z"/><path fill="#3a2d1e" d="M215 58h-2z"/><path fill="#787160" d="M244 66v1z"/><path fill="#534b41" d="m245 66 2 1z"/><path fill="#b49f77" d="M179 81v-7l2 6 3 4 3-1h3q1 5 6 5l3 6 1 3 5 9-3 2-3-8-4-4-1-6-3 11-2-3-2-5z"/><path fill="#cfbe9c" d="m189 98 2 3 2 2v1q-7-1-10-6l-14-6-3-8 3-9 3 10 7 5z"/><path fill="#372816" d="m189 98-10-8-7-5 3 1 4-5 8 12z"/><path fill="#d8d0b2" d="m181 79-2-5 6-10v2l-1 1-2 10z"/><path fill="#372816" d="m172 84-3-9 1-1h2v9z"/><path fill="#8e8577" d="M172 79v-6l2 6z"/><path fill="#3a2d1e" d="M185 66v-2h5l-2 3z"/><path fill="#514636" d="m172 79 2 1-2 3z"/><path fill="#433827" d="m170 73-1 2-3 9h-1l-1-2v-5l2-5q4-3 4 1"/><path fill="#514636" d="m166 72-2 5-2-2v-2z"/><path fill="#313132" d="M134 91q-3-3-2-7l2 1 9-6 5 6v2l1 3v9l-2 2-1 3v1l1 1v1l3 3-3 2 1 3v9l-2 1-4-14v-1l1-2q-4-5-1-11v-7l-7 1z"/><path fill="#787160" d="M150 76v-3l7 1 1 2 1 3v1h-4l-1 1-1 1h-1z"/><path fill="#585145" d="M149 91v-1l-1-3v-2l2-1 1 5z"/><path fill="#b6ab99" d="m151 89-1-6h1l2 4v1z"/><path fill="#665a4f" d="m153 86-2-3 1-1h1z"/><path fill="#8a8275" d="m158 75 2-1v-1l3 1v2h-4"/><path fill="#8e8577" d="M159 72h-2v-2l1-1z"/><path fill="#514636" d="M157 73h2z"/><path fill="#8e8577" d="m188 67 2-3v-1l2-2 1 2 1 2 1-2 1-1c4 3 5-2 9-3v1l-1 3-1 1-2 2-1 1-2 1z"/><path fill="#463a2a" d="m195 63-1 2-1-2z"/><path fill="#665a4f" d="m311 173 1 2v22l-6-5v-17h-2v16l-2 1-1-12v-8l1-7z"/><path fill="#211c14" d="m311 173-9-8 1-12 3-3v3q-1 8 4 14z"/><path fill="#1c1c14" d="M312 197v-22l3 4v8l-1 7-2 5z"/><path fill="#211f1a" d="m323 169 2 7q-4-2-3-7zm-16-20 4-3q1 4-4 3m14 16 2 3h-1zm-10-19 2-3z"/><path fill="#3a3731" d="M322 168v1h-1z"/><path fill="#171b1b" d="M266 103V93q1-9 8-4l3 1 3 5h1l2 4 2 14 5 9 3 5 5 7-8 8q-7 6-1 12l-3 4-3 6-1 8-2 2-2-6q3-5-5-5-5-1-7 5l-2 4q-3-4-7-6l-7-2-2 4-8-1h-3l-16-7v-4l1-4 4-9h3l5 2q4 3 5-1l1 2 5-3q8 0 9-7 12-4 13-15v-17z"/><path fill="#2d281d" d="m290 122-5-9-2-14h7z"/><path fill="#282119" d="M305 130v2c5 5 2 8-1 12l-1 2-2 1-2-2q6-6 3-14l2-1z"/><path fill="#2d281d" d="m298 134-5-7 4 2 1 1z"/><path fill="#3e3321" d="m304 130-2 1h-1l1-3z"/><path fill="#282119" d="m302 128-1 3-2-1 1-3z"/><path fill="#3e3321" d="m300 127-1 3h-1l-1-1z"/><path fill="#2b2119" d="m303 153-1 11-1 7h-2v-19z"/><path fill="#8a8275" d="M299 152v19l-1 3h-1l-1-22 4-3zm2-5 2-1-3 3zm2-1 1-1z"/><path fill="#211f1a" d="M299 115q1 0 0 0"/><path fill="#27261e" d="m281 95-2-5v-3h3l2 10z"/><path fill="#504d46" d="m281 95 2 1h3l3 1 1 2h-7z"/><path fill="#252019" d="m266 103 1 1q2 9 0 17-1 11-13 15l1-6 2 1 3-8 4-4v-10l2-5z"/><path fill="#534b41" d="m266 104-2 5-10 1-2-3h-1l2-5h4v-5h1v4l2-4c5 1 2 5 3 8h1z"/><path fill="#4c4033" d="m264 86-3 7h-6l1-6 1-4 2-1z"/><path fill="#725f50" d="M255 93h6l-1 4-2 4v-4h-1v5l-4-1v-8z"/><path fill="#665a4f" d="m264 86-5-4-2 1-1 1h-1l1-4 3-4 3 4z"/><path fill="#504d46" d="m278 89 2 5-3-4z"/><path fill="#5e5346" d="m259 76-4 4-1-2-4-5 4-2v2l1-1h1l1 1 1 1-2 2z"/><path fill="#837a6d" d="m246 69 5 1-3 2z"/><path fill="#665a4f" d="m254 71-4 2v-1l1-2zm5 5h-3l2-2z"/><path fill="#837a6d" d="m244 68 2 1h-2z"/><path fill="#725f50" d="M244 67v2h-1z"/><path fill="#282721" d="M328 246c-6-3-6 4-10 6l-1-4h-1l-3 7 1 1 3-2h1l-4 11 1 1 7-10 2 1-4 6q-5 7 2 11l-2 7-1-1-1-1-1-1-1-5-8 5-2-4-2-2 12-32c6 4 7-2 9-4l3 4z"/><path fill="#725d49" d="m301 308-6-5 1-15c3 0 6-3 8 1v13z"/><path fill="#786754" d="M304 289c-2-4-5-1-9-1v-5l7-8 4-1 2 4v4l-3 7z"/><path fill="#1a1a15" d="M308 282v-4l8-5 1 5 1 1v2l-1 1-1 1-1 1h-2c-1-5-3-2-5-2"/><path fill="#282721" d="M308 282c2 0 4-3 5 2l-6 9-2-4z"/><path fill="#423f39" d="m317 282 1-1zm-1 1"/><path fill="#504d46" d="M100 220q1 6 6 2l-2 19-1 2h-1l-2-7z"/><path fill="#212324" d="M91 216v-4l3 2zm-1 0v1h-1z"/><path fill="#1b1c19" d="m157 281-20-1c-6-1-6-1-6-12l4 2 5 6 6 2q7 1 4-5-3-11-12-17l-3-9v-4l15 17 5 3q1 8 7 3 5-4 0-9c-2-1-6-3 0-5l5 5 17 12 2 1 1 1q-3 8-10 9h-5l-5 2-2-1q-4-6-8 0"/><path fill="#151c1d" d="m140 276-5-6-4-2-8-6c-1-7-5-12-3-18 3-4 2-9 8-9l3 3h1l2 2 1 3v4l3 9v15z"/><path fill="#826d5d" d="m153 295-6 3-7-3-5-2-1-6h11c0 4-3 7 2 10v-14l5 1v7z"/><path fill="#423f39" d="M120 244c-2 6 2 11 3 18l-4 5-2-1q4-6 1-12l1-40v-9h1z"/><path fill="#9f8877" d="M145 287h-11v6l1 4q-4 2-4-2v-2c0-10 2-12 14-9zm7 4v-7l4-1 7 1 2 3-10 2z"/><path fill="#211c14" d="M157 281q4-6 8 0z"/><path fill="#3e291e" d="M145 287v-3l2-1v14c-5-3-2-6-2-10"/><path fill="#725f50" d="M157 282h10v5h-1l-3-3-7-1z"/><path fill="#47433b" d="m120 205-1-6h1z"/><path fill="#2f2821" d="M114 219v-4z"/><path fill="#211c14" d="m167 283 5-2h5q7-1 10-9l1-1h1l2 1h2l2 1 9 2 1 3-1 7-6-2-2 1q-6 6-10 0l-3-1q-8-1-12 6 1-5-4-5"/><path fill="#a69a88" d="M171 288q5-7 12-6l3 1q4 6 10 0h2l-6 11q-5-3-7-7-4-5-7 0l-4 3 8 7c-6 3-7-2-10-5z"/><path fill="#8a7767" d="M205 298v-14l11-1 2 1v13l-11 1zm7-5q5 1 3-3l-2-3-5 2z"/><path fill="#96826f" d="m152 291 4-2q0 5 5 5l7 2v1q-7 4-15-2z"/><path fill="#8e7e71" d="M168 296v-13q5 0 4 5v5l-1 3z"/><path fill="#5e5346" d="m216 283-11 1h-1l1-7h1v2l3 3z"/><path fill="#725f50" d="M171 293v-4l1 3zm-3 3h2l-2 1z"/><path fill="#211c14" d="M192 296q0 1 0 0"/><path fill="#4e4a3f" d="M205 298h2v30h1l3-3 10-9v2l-13 15h-4v-4l1-9z"/><path fill="#5b534b" d="m197 324-3-1-5-6-4-3-14-1 18-1 11 14z"/><path fill="#2f2821" d="m197 325 3 1 2 2 2 1v7l-6-3z"/><path fill="#6e675e" d="m161 319-1-2 5 1 6-1h13v2z"/><path fill="#433d33" d="m184 319 1-2v-3l4 3-1 5zm-13-2-6 1z"/><path fill="#3e3a31" d="m114 157-1-6v-6l1-1 2 1 3 6 1 8-1 11-1 2-2-10z"/><path fill="#837a6d" d="m118 172 1-1v9l1 8-1 8v3h-1z"/><path fill="#2f2821" d="m104 241 2-19v-2l-1-1-1-7-1-2 4-5h1v36z"/><path fill="#a69a88" d="M103 243v-2z"/><path fill="#4e4a3f" d="M109 246q0 1 0 0"/><path fill="#5b574e" d="m102 200 1-6 3-3q3 8-4 9"/><path fill="#787160" d="m106 191-3 3-1-4 3-3z"/><path fill="#40382d" d="m109 156-4-8 2 1 3 1 2 6z"/><path fill="#2f2821" d="m107 149-2-1-2-1-2-2 4-2-1-6v-3l1-1h2l2 3 2 5 2 4v6l-3-1-3-6zm1-8s1-1 0 0m80 181 1-5 5 6-2 4z"/><path fill="#3e3a31" d="M182 332h-9v-2h9z"/><path fill="#2f2821" d="m197 334-1 3z"/><path fill="#323129" d="M172 332q-1 0 0 0"/><path fill="#2c3038" d="M142 110c-6 2-3 7-4 11l-1 9-12 16-4 2v-3l1-5-6-7 2-4q4-6 4-14l1-15q10 0 11-10h1l7-1v7q-3 6 1 11z"/><path fill="#2f2821" d="m123 101-1 15q0 9-4 14l-2 4-3 4-3-2 7-11 2-2 1-10v-11z"/><path fill="#534b41" d="m117 116-1-14 3-2v15z"/><path fill="#47412f" d="m117 116 2-1v8l-2 2-7 11h-1l-2-3q1-7 7-9l-4-2h1l5-2z"/><path fill="#191812" d="m220 316-9 9-3 3h-1v-26l7-1 18-3h5l9 3q6 0 5-6l1-4h1l-1-1 1-2c6 0 3 4 4 7l2 4 3-2 5 1 3 1 3-1 2 1q7 2 7-4l-1-5 1-11-1 1-5-1 2-5 5 2 6 2 2-2v-5l6-4-2 16v21l-2 3q-6 5-14 4h-10l-1-2-10-2-9 2-5 2h-13q-8-3-11 5"/><path fill="#2b2119" d="m293 307 1-3v3z"/><path fill="#5f594d" d="M220 316q2-8 11-5h13l5-2 9-2 1 2q-4-1-8 3l-5 2c-8 2-16-1-24 2z"/><path fill="#5b534b" d="m259 309-1-2 10 2z"/><path fill="#534b41" d="M312 197v2l-1 22h-3q-3 3-6-1v-5l3 3 1-5q4-7-4-9v-1l4-2h-4v-9l2-1v4l1 1 1-4z"/><path fill="#1c1b15" d="m316 240-12 31v-8q-2-12 6-20 2-2 2-6v-8l2 4z"/><path fill="#504d46" d="M312 229v8l-5-1-1-9 2-6h3zm13 7c-2 2-3 8-9 4l4-3 3-5 1-6 2 1z"/><path fill="#282721" d="m320 237-4 3v-1z"/><path fill="#363229" d="m330 233-1 2h-1zm0 0"/><path fill="#40382d" d="m104 137 1 6-4 2-2-6v-4zm-1 10 2 1z"/><path fill="#504d46" d="m104 212 1 7zm1 7"/><path fill="#37342c" d="M111 122h-3c-5 0-3-5-5-7v-1l2-2c1 6 6 3 9 3l1 5q-4-2-4 2"/><path fill="#585145" d="M108 122h2l4 2q-6 2-7 9h-2l-2-3zm-4 15-5-2 4-5q-3 4 1 4zm7-15q0-4 4-2h1z"/><path fill="#cdb488" d="m199 94-3-6 1-2 4-3c5 3 4-1 5-3l3-2v5q-7 5-3 11l-1 3z"/><path fill="#342518" d="m197 86-1 2q-5 0-6-5-7-7-5-16v-1l3 1v1l-1 4 1 1 1 1 1 4 6 6z"/><path fill="#d5c6a8" d="M206 80c-1 2 0 6-5 3l3-11z"/><path fill="#cfbe9c" d="m219 85 2 2-4 10-3-3v-6q3 2 3-1z"/><path fill="#5f594d" d="m216 70 4 5-10-2 5-3z"/><path fill="#b49f77" d="m206 80-2-9q1-3 3 0l2 7z"/><path fill="#bfad8f" d="M217 87q0 3-3 1l-2-1-1-4 3-2z"/><path fill="#b49f77" d="m214 81-3 2h-2v-4z"/><path fill="#8a8275" d="m188 73 4-1v1l-3 2z"/><path fill="#514636" d="m198 77-3-2v-1l3-2v1h-1l1 1z"/><path fill="#837a6d" d="m199 77-1-3 2-1zm-7-5h3l-1 3h-1z"/><path fill="#534b41" d="m200 73-2 1v-2z"/><path fill="#6e675e" d="M193 74h1v1z"/><path fill="#927763" d="m197 86-1-2z"/><path fill="#bfad8f" d="m224 93 8-3c9-3 9-9 10-15q5 8 1 16l-16 7-5 1z"/><path fill="#7e6543" d="m224 93-3 6-6 1 2-3 4-10 10-12 1 2q0 7-5 11z"/><path fill="#463a2a" d="M242 75c-1 6-1 12-10 14l1-3q9-4 3-10l1-3 3-1h1z"/><path fill="#665a4f" d="M236 76q6 7-3 10z"/><path fill="#3a2d1e" d="m237 70-2-1-1-2h3z"/><path fill="#3e3321" d="m240 72-3 1v-1z"/><path fill="#4b4233" d="M195 71h-3l-5 1 1-4h10zm9-8 1-3 3 2z"/><path fill="#534b41" d="m195 71 2 1-3 2h-1z"/><path fill="#4b4233" d="m212 67 3 3zm-11-1 2-2zm-3 2 2-1zm2-1 1-1zm3-3 1-1z"/><path fill="#968d82" d="M237 70v-3h1z"/><path fill="#3a2d1e" d="M238 70v-3h1z"/><path fill="#37291b" d="m242 75-1-4 2-1 1-1 1 1 3 2h2v1l4 5-2 6 2 3-5-1-1 8-7 5 3 3-8-1-2-2 9-8q4-8-1-16"/><path fill="#4d3c21" d="M183 98q3 5 10 6l2 1 2 2 3 2h2l3-3h1c1 4-6 10-9 10l-7-6-4-3-1-1-10-5v-3c3 1 6 5 8 0"/><path fill="#cdb488" d="m202 108-1 1h-1l-3-2-2-2-2-2-2-2 3-11 1 6 4 4z"/><path fill="#ae9c78" d="M184 67q-1 9 6 16h-3l-5-6z"/><path fill="#7e6543" d="m206 106-5-9-1-3 6 3 1 5z"/><path fill="#dfc89a" d="m182 77 5 6-3 1-3-4z"/><path fill="#3a2d1e" d="M175 98v3h-4l-7-6 1-6v-5h1l3 8z"/><path fill="#8a704c" d="m175 98-6-6 14 6c-2 5-5 1-8 0"/><path fill="#b49f77" d="m193 103 2 2-2-1z"/><path fill="#514636" d="M165 84v5l-3-1-3-4h1v-1l-3-3h2v-1l-1-3h3l1 3 2-2v5z"/><path fill="#433827" d="m164 77-2 2-1-3 1-1z"/><path fill="#25272b" d="M121 146v3l4 5 4 3q2 5 9 4-1-7 5-11 2-2 1-6-3-9 1-16l1-3 2-1 2-2 1 1q-2 5 2 5v1l2 1 1 1 2 6q-3 2 1 6 4 2 4 6 1 8 8 11l-1 5-2 1h-5l-3-1-8 3-2 3-6 7-15 19-6 3-3-4v-8l4-3 4 2v-17q0-8-7-11h-1l-1-8 1-5z"/><path fill="#282b31" d="m146 125-1 3q-4 7-1 16 1 4-1 6-6 4-5 11-7 1-9-4l-4-3-4-5 4-2 12-16 1-9c1-4-2-9 4-11z"/><path fill="#463a2a" d="m151 123-2-1h-1v-7h3q7 1 8 6l4 5 2 2q3 3 5 3l13-4q6-3 12-2l1 4v1l-4-2-1 1 2 3-2 3-6-3-11 5q-10-2-15-10l-3-1-3 2z"/><path fill="#787160" d="m150 110-2-3v-1l4-1 1 7-2-1z"/><path fill="#aaa497" d="m151 89 2-1 1 1 1 2-4 1-1 6h-1v-7z"/><path fill="#433d33" d="m152 105-4 1h-1l-1-1v-1l1-3h3l1 1z"/><path fill="#8e8577" d="m150 110 1 2v3h-3l-1-3z"/><path fill="#968d82" d="m148 87 1 3z"/><path fill="#a69a88" d="m151 102-1-1-1-2v-1h1z"/><path fill="#968d82" d="M148 119v2zm1-18h-2l2-2z"/><path fill="#282b31" d="m142 110 1-2z"/><path fill="#aaa497" d="M148 122h1l-1 2z"/><path fill="#8e8577" d="m157 80 3 3v1h-1l-3 3-1-2 1-5z"/><path fill="#4c4033" d="M155 80v5h-1v-4z"/><path fill="#bcb298" d="M154 81v4h-1v-3z"/><path fill="#665a4f" d="M154 89v-2l1 2z"/><path fill="#968d82" d="M154 87v-1h2z"/><path fill="#32251a" d="m296 152 1 22h1l1-3 2 1v8h-2l-2 5-4-2v-32z"/><path fill="#2b2119" d="M299 180h2l1 12v19h-4v-9z"/><path fill="#4c4033" d="m306 192-1 4-1-1v-20h2z"/><path fill="#32251a" d="m191 135 2-2 3 13 2-3h1v1l7 11 3-9 2 3 2-4c5-1 1-4 1-6l3-1 1-10h-1v-3q7-2 12 2l6 3 7 2-1 3h-5c-3 0-4-5-7-1h-1v-1h-2l-4 3h-1l1 1 1 1 3 5-4 9-5-4-1 3-1 3 4 2h2v5a45 45 0 0 0-30-2h-2l1-4 6 1 4-1-2-4-6-5v-4l-1-2-1-2zm28 10v-1h-1z"/><path fill="#271d11" d="M237 167h3l8 1 3 4q1 6 6 5l6 7 1 10q5 5 2 11v1l-3 1-3-6 1-2-1-2-7-12-11-13z"/><path fill="#141718" d="m264 172 2-4q2-5 7-5 8 0 5 5l2 6 3 10v2l-3 4q-2-7-8-8z"/><path fill="#4e4a3f" d="m264 172 8 10 8 8 3 7h-2l-6-7-5-6-8-8-5-5q-1-5-3-1l-3 2-3-4 2-4 7 2z"/><path fill="#2d2821" d="M298 134v2l-6 10-1 2-1 5-2 1q-5-6 1-12z"/><path fill="#6e6555" d="m237 167 5 5-3 1-8-5-10-6v-1z"/><path fill="#47433b" d="M283 172v-7l1 2 2 8h3l-4 8z"/><path fill="#6e675e" d="M221 156h-2l-4-2 1-3 1-3 5 4z"/><path fill="#626159" d="m284 167-1-3 3-6h3q0 7-5 9"/><path fill="#252019" d="M254 136q-1 7-9 7l1-3v-1z"/><path fill="#1c1b15" d="m282 172 2 11-1 1-3-10z"/><path fill="#787160" d="m226 143-3-5h9l-2 3h-3l1 2z"/><path fill="#252019" d="M239 144q-1 4-5 1v-3l3-2 1-1 1 2z"/><path fill="#665a4f" d="M234 143v2l-5-2 1-2 2-3 2 2z"/><path fill="#252019" d="m245 143-5 3 1-4z"/><path fill="#2d2821" d="M289 158h-3l3-4z"/><path fill="#363225" d="m241 142-1 4-1-2v-3l1-1h1zm-11-1-1 2-2-2z"/><path fill="#423f39" d="m299 135-1-4h1l2 1h1q3 8-3 14l-2-3 3-5z"/><path fill="#363229" d="m297 143 2 2 2 2-1 2-4 3-3-1v-1q4-2 1-4z"/><path fill="#7b7569" d="m254 136-8 3-5-2v-1l2-1h2q5-1 6-6 2-4 7-8l2 2-3 8-2-1z"/><path fill="#8e7e71" d="m254 111 9-2v3l-6 3-3 1-2-1 1-2z"/><path fill="#534b41" d="m258 115 5-3 1 7-3-2z"/><path fill="#725f50" d="m261 117 3 2-4 4-2-2c-3-5 2-2 3-4"/><path fill="#342518" d="m254 110-1 3-1-1c-3-5-4-1-6 1q-8-3-5 7h-2l-7-7 2-4h7q7 1 9-6l-1-2 1-3c-4 0-1-3-2-4h3l2-1v9l-2 5h1z"/><path fill="#8e7e71" d="M253 93h-2l-1-7 4 1-2-3 2-6 1 2v4l1 3-1 6zm3-9-1 4z"/><path fill="#5e5346" d="M256 84v3z"/><path fill="#363229" d="M250 72h-2l3-2z"/><path fill="#40382d" d="M304 263v9l2 2-4 1v-10z"/><path fill="#423f39" d="m318 279-1-1z"/><path fill="#2b2119" d="m302 265-1 10-6 8 2-7 2-5v-40l2-6h1zm-7 20v-2z"/><path fill="#423f39" d="m135 243-1-3-1-3-1 1h-1l-3-3-2-2v-2h2l5 3q5 0 8 5v1l-1 1h1l2 3 1 1 1 1 1 2 1 1 5 5 1 1 2 2 2 2 2 1-4 3-5-3z"/><path fill="#171b1b" d="m140 276-2-5v-15q9 6 12 17 2 6-4 5z"/><path fill="#2d2821" d="m141 240 3-1 11 12 4-1h3v3c-6 2-2 4 0 5q5 5-1 9l-2-6-2-1-2-2-2-2-1-1-5-5-1-1-1-2-1-1-1-1z"/><path fill="#6e675e" d="m195 272-2-1v-2l-2 2-2-1v-1l-1 1h-2l-2-1-17-12v-3l3 1 4 3 6 3 3 2 10 4 2 1v2z"/><path fill="#665a4f" d="m159 260 2 6q-5 5-6-3z"/><path fill="#40382d" d="M167 254v3l-5-5 4 1z"/><path fill="#5e5346" d="m184 269 2 1z"/><path fill="#25231e" d="m126 233 2 2c-6 0-5 5-8 9v-39l-1-6 1-3 3 4c-2 8-1 8 4 9l-2 5 4 8v1l-6 2c1 3-1 6 3 8"/><path fill="#373733" d="m132 238 1-1 1 3zm-4-3 3 3z"/><path fill="#37291b" d="M167 287v9l-6-2q-5 1-5-5l9-2z"/><path fill="#5e5346" d="M195 272v-2l17-1 3-2 1-2h6l-2 5-1 2-10 1-5 1z"/><path fill="#2d2319" d="M204 274h5l-3 3h-1z"/><path fill="#5e5346" d="m191 271 2-2v2zm-3-1 1-1z"/><path fill="#1b140d" d="m206 277 3-3 10-2 17-3-2 2-3 6 6 3v3h-21l-7-1-3-3z"/><path fill="#2d2319" d="m231 298-17 3-7 1v-3l11-2 3 1 4-4z"/><path fill="#463a2a" d="m221 298-3-1v-13l17-1v1h-11l-3 3z"/><path fill="#52432b" d="m212 293-4-4 5-2 2 3q2 4-3 3"/><path fill="#2d2319" d="m206 279 3 3z"/><path fill="#47433b" d="M120 159q2 11 0 20h-2v-8z"/><path fill="#7b7569" d="m109 136 3 2 3 6h-2l-3-3zm10 10v5l-3-6v-1z"/><path fill="#383737" d="m111 141 3 3-1 1z"/><path fill="#25231e" d="m119 180 2-1 3 6-4 3z"/><path fill="#3e3a31" d="m107 149 1-5 2 6z"/><path fill="#47412f" d="M104 134q-4 0-1-4l2 3z"/><path fill="#383737" d="M109 140q-1 0 0 0"/><path fill="#282b31" d="m120 146-4-2-3-5 3-5 6 7-1 5z"/><path fill="#aaa497" d="m117 125 2-2z"/><path fill="#141615" d="m278 274-2 5h-2l-9-2q-6 0-4-6l3-5 4-12 6-7c2 5 7 4 9 7l5 1h1l-1 3q3 10-7 10l-3 4z"/><path fill="#282119" d="M281 268q10 0 7-10l1-3 3-2 1 2v-1l1-17h3v30l-6 4q-4-2-7-1l-2 6-4-2v-2z"/><path fill="#8a7767" d="M221 298v-11l3-3h11l1 5q-2 5 0 9h-4l-7-4 4-3 3-2-3-2h-5v7z"/><path fill="#4c453c" d="M297 267v-40l1-16h1l1 9 1 5-2 6v40l-2 5z"/><path fill="#8e7e71" d="m252 291-1 5-4 3q-11 0-9-13l3-1v4l3 4 4-4v-5l1-1 1-1 3 1v5l-1 2z"/><path fill="#826d5d" d="M253 288v-5l4-1 11 2-2 3q-5-1-5 5l1 5-3 2-2-4c-1-3 2-7-4-7"/><path fill="#96826f" d="m267 287 1-3 9-1q6-1 3 4h-9v2h8l2 1 1 5-1 1q-6-5-12-2z"/><path fill="#282119" d="m281 290-2-1 1-2q3-5-3-4l-9 1-11-3 6-1 11-1h2l5 1 1-1z"/><path fill="#6e6555" d="m283 276 1-6q3-1 7 1v5l-2 2z"/><path fill="#342518" d="m267 287 2 7-2 4-5-1-1-5q0-6 5-5"/><path fill="#2d2319" d="M237 286q-1 13 9 13v2l-9-3q-3-4-1-9l-1-5v-1h2z"/><path fill="#8a7767" d="m267 298 2-4q6-3 12 2l-6 2h-5z"/><path fill="#342518" d="m275 299 6-3 1-1q0 6-7 4"/><path fill="#282119" d="m246 301 1-2 4-3q1 5-5 5"/><path fill="#342518" d="m270 299 3-1z"/><path fill="#282119" d="m289 278 2-1z"/><path fill="#4c453c" d="M302 265v-45q3 4 6 1l-2 6c-4 3-4 14-2 18l3-9 5 2q0 3-2 5-8 8-6 20zm0-54v-7q8 2 4 9l-1 5-3-3z"/><path fill="#271d11" d="M302 211v9h-2v-1l-1-8z"/><path fill="#4c453c" d="m302 203 4-1zm4-2"/><path fill="#37342c" d="m307 236-3 9c-2-4-2-15 1-18z"/><path fill="#8a704c" d="M209 83h2l1 4 1 1 1 2-8 4q-4-6 3-11"/><path fill="#6e5c38" d="m206 94 8-4v4l-3 3-5 5-1-5z"/><path fill="#bfad8f" d="m211 97 3-3 3 3-2 3-1 4-2 1q-5 0-3-4z"/><path fill="#6e5c38" d="m243 91-9 8-8 1 1-2z"/><path fill="#a9906d" d="m227 98-1 2v2l-8 2h-4l1-4 6-1z"/><path fill="#45341e" d="M226 102v-2l7-1 2 2-7 3-3 2-9 5v-7h2q5 3 8-2"/><path fill="#a9906d" d="m228 104 8-2h11l-3 4z"/><path fill="#463a2a" d="M247 102h-2l-4-3 7-5c1 1-2 4 2 4l-1 3zm2-16 2 7-3 1z"/><path fill="#cfbe9c" d="m211 97-2 4q-2 4 3 4l-1 4-1 1-4 4-2 1 2 2v9l-11-1v-8l2-1c3 0 10-6 9-10v-4zm-40 4h4l10 5v4h-1q-6-6-14-4l-9-2-1-7q6 10 11 4"/><path fill="#cdb488" d="m184 110 1-3 4 3v7l-5-2v-2z"/><path fill="#ae9c78" d="M190 117v-7q4 2 7 6l-2 1z"/><path fill="#b49f77" d="m197 107 3 1z"/><path fill="#ae9c78" d="m186 107-1 3z"/><path fill="#4b4233" d="M171 101q-6 6-11-4l1 7v3h-1l-4-6v-6l1-2v-1l1-1h1l4 2v-2h-2l1-3 3 1-1 6-1-1 1 1z"/><path fill="#6e675e" d="m159 91-3-2v-1l3-3 3 4-1 3z"/><path fill="#373733" d="M127 209c-5-1-6-1-4-9l6-3 7 1 2 4 6 6v8l-1 10q-5 7 1 12l-3 1q-3-5-8-5l-5-3 5-1q7 1 7-6v-11l-3-4z"/><path fill="#212324" d="M171 160q-7-3-8-11 0-4-4-6-4-4-1-6 5 6 12 6v2l5 5q6 0 5 7z"/><path fill="#7b7569" d="M170 143q-7 0-11-6l-3-7v-4l3 1q5 8 15 10l-1 2-2 4z"/><path fill="#6e675e" d="m124 185-3-6q2-9 0-20 7 3 7 11v17z"/><path fill="#5b574e" d="m136 198-7-1 15-19 2 2-1 1-1 2-3 4-3 6-2 3z"/><path fill="#2d2821" d="m171 160 9-3 6 1v3l-6 2-1-1h-2q-5 2-5 6l-1-1-1-2z"/><path fill="#47433b" d="m146 180-2-2 6-7 2-3 1-1c4 0 2 3 3 5h-1z"/><path fill="#7b7569" d="M156 172c-1-2 1-5-3-5l7-2v7z"/><path fill="#2d2821" d="M163 166h5v4l-2 2h-2z"/><path fill="#3e3a31" d="m163 166 1 6h-3l-1-7z"/><path fill="#5b574e" d="m151 123 2 5q-4 0-2-5"/><path fill="#3e3a31" d="M168 170v-4l2-1 1 3z"/><path fill="#5f594d" d="M156 126v4h-1l-2-1v-1z"/><path fill="#7b7569" d="m152 168-2 3z"/><path fill="#8a8275" d="m153 129 2 1z"/><path fill="#3e3321" d="m165 128-2-2-4-10 1-3 6 8 7-7-13-3 4-1 14-1 5 4v3l-3-2c-6-1-7 5-11 8l6-1 2 3q0 6-4 5z"/><path fill="#7e6543" d="m195 125 11 1c3 0 6-5 6 1l3-2h2v3l-1 1a35 35 0 0 1-19 1l-1-1z"/><path fill="#5b534b" d="m173 139 1-2 11-5 6 3-1 3h-2l-1 1h-5l-2 1-2 1h-1v-2l-1 1z"/><path fill="#b6ab99" d="m165 128 8 1q4 1 4-5l18-3v4q-6-1-12 2l-13 4q-3 0-5-3"/><path fill="#96826f" d="m198 143-2 3-3-14-2-3 1-1 4 2h1v4l2 5q4 3 0 4z"/><path fill="#a69a88" d="m160 113-1 3 4 10-4-5q-1-5-8-6v-3h2l4-1zm-3 0s-1 1 0 0"/><path fill="#514636" d="m156 111-2 1-2-7h2l1 1 2 1-2 2v1z"/><path fill="#5f594d" d="m157 107-2-1-1-1-1-1v-3l-1-4-1-5 4-1 1 1h1v1l-1 2v6l4 6z"/><path fill="#40382d" d="m151 92 1 5 1 4v1h-1l-2-4z"/><path fill="#585145" d="m157 92-1-1-1-2v-1l1-1h1v2l2 2z"/><path fill="#8e8577" d="M152 102v2h-1l-1-2z"/><path fill="#626159" d="M149 101v-2l1 2z"/><path fill="#4e4a3f" d="M152 104v1z"/><path fill="#4c4033" d="M156 87v-2z"/><path fill="#271d11" d="m298 211-1 16v10h-3l-1-26v-28l4 2 1 17z"/><path fill="#6e675e" d="M293 150v25l-2-1v-22l1-5z"/><path fill="#5b534b" d="M291 176h2v7h-2z"/><path fill="#665a4f" d="m298 202-1-17 2-5z"/><path fill="#363229" d="M293 173v-6z"/><path fill="#7e6748" d="M199 144q3-2 0-6v-1q8-2 15 1v1c0 2 4 5-1 6l-2 4-2-3-3 9z"/><path fill="#d9d9c9" d="m168 170 3-2 1-1 8-4 6-2 3-1h4l3 1-1 2h-5l-6 3-2 1-2 1-2 1-1 1-2 1-9 8-2 2-1 1-6 3 3-5 4-5 2-3z"/><path fill="#5f594d" d="m192 146 6 5 2 4-4 1-6-1v-2l-2-6z"/><path fill="#837a6d" d="m196 161-3-1v-1q13-3 28 2v1l-16-1z"/><path fill="#8e7e71" d="M217 125h-2v-3h7l4 1 9 5v2l-6-3q-5-4-12-2"/><path fill="#787160" d="M235 130v-2l8-1h2l1 2-3 3h-1z"/><path fill="#826d5d" d="m214 139-1-1 3-9h1l1-1-1 10z"/><path fill="#4c453c" d="M229 138h-6l-1-1v-1l4-3h2v1zm2 0-1-4c3-4 4 1 7 1z"/><path fill="#433d33" d="m231 138 5-3h2v4l-1 1h-3l-2-2z"/><path fill="#8a8275" d="M192 146h-5v-1l5-2z"/><path fill="#363229" d="m192 143-5 2h-1l-1-1 1-2h6zm-2 10v2l-1 4q0 2 0 0l-2-7z"/><path fill="#4e4a3f" d="M188 142h-2l-1-1 2-2 1-1h2l1 2z"/><path fill="#4c453c" d="M238 137v-2h3v2z"/><path fill="#837a6d" d="m189 142 2-2 1 2z"/><path fill="#463a2a" d="m241 136 1-3h1v3z"/><path fill="#665a4f" d="m229 134 1 4h-1z"/><path fill="#787160" d="m222 136-1-1z"/><path fill="#8a8275" d="m219 145-1-1h1z"/><path fill="#665a4f" d="M228 133h-2z"/><path fill="#363229" d="m193 159-1-1z"/><path fill="#4c4033" d="m260 201 3 6-6 31v2l-9 12-5-2v-2l2-4 5-10c5-3 6-11 3-15v-5l2-8 2-3 2 5z"/><path fill="#323129" d="M281 197h2l5 8q2 4-2 4h-14l-2 2-3 12-1-17v-1l3-1h8q4 0 4-4z"/><path fill="#252019" d="m266 206 1 17-1 4-5 5-4 6 6-30z"/><path fill="#787160" d="m257 171 5 5 8 8q0 6 5 6l-3 4-3-2-1-2-5-6-6-7c-1-2-4-4 0-6"/><path fill="#cfbe9c" d="m239 173 3-1 11 13 5 12v2h-1q-6-16-17-25z"/><path fill="#252019" d="m269 192 3 2 3 5h-1l-4-2-1 7-3 1q3-5-2-11l-1-10 4 6-1 3z"/><path fill="#363225" d="M257 171c-4 2-1 4 0 6q-5 1-6-5l3-2q1-4 3 1"/><path fill="#96826f" d="m258 197-5-12 6 12zm-1 2h4l-1 2-1 7-2-5z"/><path fill="#4c4033" d="M261 199h-2l-1-2h1z"/><path fill="#1c1b15" d="M286 209q4 0 2-4l-4-8-4-7 3-4 8-3 1 28v42l-3 2h-1l2-21h-4l1-4c1-3 3-6-2-6q6-7 1-15"/><path fill="#363225" d="m291 183-8 3v-2l2-1 4-8h-3l-2-8q6-2 5-9v-4l2-1z"/><path fill="#1c1b15" d="m280 190-8-8q6 1 8 8"/><path fill="#25231e" d="m269 204 1-7 4 2h1l-3-5 3-4 6 7v3q0 4-4 4z"/><path fill="#463a2a" d="m270 184-8-8zm5 6q-5 0-5-6z"/><path fill="#7b7569" d="m297 142-3 4h-1l6-11 1 2z"/><path fill="#423f39" d="M293 146q3 2-1 4l-1-2z"/><path fill="#433d33" d="m205 161 16 1 10 6-20-5q-5-2-5 3l-2-1zm34 12h-3l-5-6z"/><path fill="#534b41" d="M238 137h3l5 2v1h-6l-2-1z"/><path fill="#6e675e" d="M241 140h5l-1 3-4-1z"/><path fill="#7b7569" d="M234 140h3l-3 2v-1z"/><path fill="#363225" d="m238 139 2 1-1 1z"/><path fill="#433d33" d="M234 141v1z"/><path fill="#3e3321" d="M243 135v-3l3-3 8-13 3-1 4 2c-1 2-6-1-4 4l-6 8q-2 5-6 6z"/><path fill="#a69a88" d="m254 116-8 12-1-2 2-3 5-8z"/><path fill="#3e3321" d="m252 115-5 8h-1l3-8 1-1 2-2 1 1z"/><path fill="#5c462a" d="m228 104 16 2-10 3-2 4-7 3v-2l2-6-2-2z"/><path fill="#806654" d="m225 116 7-3 7 7h-9l-6-1z"/><path fill="#585145" d="m249 115-3 8-5-3q-3-10 5-7z"/><path fill="#826b56" d="m234 109 11-3 2-4 2-1 1 2q-2 7-9 6z"/><path fill="#534b41" d="m249 115-3-2c2-2 3-6 6-1l-2 2z"/><path fill="#3e3321" d="M237 120h4c-1 1-3 4-4 0"/><path fill="#271d11" d="m301 220 1 5h-1z"/><path fill="#383737" d="M140 225q-1 6-7 5l-5 1h-1l2-8v-1h2q-1 5 3 3l3-1z"/><path fill="#373733" d="m129 223-3 8v2c-4-2-2-5-3-8z"/><path fill="#8a8275" d="m147 249 5 5zm-6-8 2 3zm12 14 2 2zm2 2 1 2zm-10-11 1 2zm-4-6h-1zm5 8 1 1z"/><path fill="#1a1b18" d="m160 180-3 6-3 5-3 10-2 9q-2 7 0 13l10 26-4 1-11-12q-6-5-1-12l1-10v-8l-5-6 6-10v-6l4-4 3 2v-1z"/><path fill="#40382d" d="m159 249-10-26q-2-6 0-12l2 5h1v-5l3 13v3l1 2 1 7v5l5 8z"/><path fill="#5e5346" d="m162 249-5-8v-5l9 11 6 4v1l-2 3-3-1-1-1-3-1z"/><path fill="#3a3731" d="m180 261-6-3 1-3 1-1 7 4 7 5 3 2v1l-10-3z"/><path fill="#433d33" d="M193 267v-2h23l-1 2-20 1z"/><path fill="#7b7569" d="m195 268 20-1-3 2-17 1z"/><path fill="#433d33" d="m175 255-1 3-4-3 2-3h1zm5 6 3 2z"/><path fill="#725d49" d="M131 222h-2l-4-8c4 0 6-5 9-1v4z"/><path fill="#514636" d="M134 213c-3-4-5 1-9 1l2-5h6z"/><path fill="#bfbdaa" d="M243 248v2l-14 11-1 1-2 1-4 2h-6v-2l2-1 12-5 2-1 4-3z"/><path fill="#2d2319" d="m236 269-17 3 1-2 14-5 7-3v1l-1 2z"/><path fill="#786754" d="m234 265-14 5 2-5 5-2 1-1 1-1h3z"/><path fill="#141615" d="m236 269 1-1 3-2c8-1 8 7 13 10v1l-12 4-4-1-6-3 3-6z"/><path fill="#282119" d="m237 280 4 1v2h-4z"/><path fill="#45341e" d="m225 294-1-7h5l3 2-3 2z"/><path fill="#47433b" d="m287 230-1 4-12 13-6 8-10 10-7 3-2-3q1-5 5-7l8-10 12-13 7-2z"/><path fill="#191812" d="m249 265 2 3 7-3 10-10-4 11-3 5q-2 6 4 6l9 2-11 1-6 1-4 1h-3l-4 1-5 2v-4l12-4v-1c-5-3-5-11-13-10v-1l1-2 5-3h1z"/><path fill="#121511" d="m274 247 12-13h4l-2 21-5-1c-2-3-7-2-9-7"/><path fill="#191812" d="m281 268-3 4z"/><path fill="#4e4a3f" d="M292 253v-42h1v44z"/><path fill="#282119" d="m241 285 9-3-1 1-1 1v5l-4 4-3-4z"/><path fill="#8a7767" d="M241 283v2l-3 1-1-3z"/><path fill="#514636" d="m280 287-1 2h-8v-2z"/><path fill="#5c462a" d="m211 109 1-4 2-1h2v7l-1-1zm15-7q-3 5-8 2z"/><path fill="#a9906d" d="m215 111 9-5 2 2-2 6-13 3 3 5v3l-3 2c0-6-3-1-6-1l1-8 5 2v-7h1l1-1z"/><path fill="#625235" d="m195 121-18 3-2-3 7-2q3 0 1-3v-3h1l1 2 5 2h4z"/><path fill="#8a704c" d="M212 113v7l-5-2-1-1v-3l4-4z"/><path fill="#45341e" d="m212 113-2-3 1-1 4 1-1 2-1 1z"/><path fill="#a9906d" d="M206 114v2l-2-1z"/><path fill="#9f8877" d="M178 109h-14l-3-2v-3l9 2z"/><path fill="#735e40" d="m178 109-7-3q7-2 13 4l1 3h-2z"/><path fill="#3e3321" d="M184 113v2z"/><path fill="#837a6d" d="m161 107 3 2-4 2v1l-3-1-2-2 2-2z"/><path fill="#514636" d="M159 91h4v2z"/><path fill="#585145" d="m156 95 1-2z"/><path fill="#968d82" d="m158 91-2-2z"/><path fill="#3a2d1e" d="m164 95-1-1z"/><path fill="#241d10" d="m134 213-1-4h4l3 4v11h-3l-3-1-2-1 2-5z"/><path fill="#2e2e27" d="m145 192-7 10-2-4v-2l2-3 5-5 1-1h1z"/><path fill="#25231e" d="m140 213-3-4z"/><path fill="#1e201b" d="m190 153-3-1 2 7h-1l-2-1-6-1q1-6-5-7l-5-5h6l4-1h5l1 1 1 1v1z"/><path fill="#aaa497" d="M172 145h-2v-2h1z"/><path fill="#363229" d="M172 145v-2l1-4 1 1 2 5z"/><path fill="#b6ab99" d="m146 180 9-8-6 9h-4z"/><path fill="#968d82" d="m143 188-5 5 3-6zm2-7h4v1l-4 4h-1v-3z"/><path fill="#b6ab99" d="M144 183v3l-1 2-2-1z"/><path fill="#373733" d="m138 193-2 3z"/><path fill="#3e3a31" d="m180 163-8 4q-1-3 5-5h2z"/><path fill="#363229" d="M179 162h-2z"/><path fill="#32251a" d="m186 158 2 1-2 2z"/><path fill="#2d2821" d="m149 182 6-9h9v3l-4 5-8 3v2zm11-9v1"/><path fill="#3e3a31" d="M164 175v-3h2z"/><path fill="#bcb298" d="M183 116q2 3-1 3l-7 2-6 1c4-3 5-9 11-8z"/><path fill="#7b7569" d="m160 112 13 2-7 7z"/><path fill="#372816" d="m216 129-3 9q-5-3-14-1l-2-3v-4q9 2 19-1m-16 3s-1 1 0 0"/><path fill="#8e8577" d="m176 145-2-5h3v1l1 1h1v2zm11-6-2 2h-3v-2z"/><path fill="#665a4f" d="m182 140-3 1h-1v-1l2-1z"/><path fill="#837a6d" d="M182 140h-2z"/><path fill="#4e4a3f" d="m177 140 1-1z"/><path fill="#463a2a" d="m197 134 2 3v1z"/><path fill="#837a6d" d="M157 114q0-1 0 0m-2-5"/><path fill="#968d82" d="m153 101-1-4z"/><path fill="#bfbdaa" d="M190 163h5l-2 3-18 7v-2l2-1 1-1 2-1 2-1 2-1z"/><path fill="#514636" d="m194 166 1-3 1-2h9l-1 5h-4l-3 1zm4-3s0 1 0 0"/><path fill="#81816d" d="M175 171v2l-1 4-6 4-1-1v-1z"/><path fill="#514636" d="m167 180 1 1v3l-6 6v-4l2-4v-1z"/><path fill="#bfbdaa" d="m163 182-1 4-6 6-1-2 2-4z"/><path fill="#81816d" d="m190 163-6 3z"/><path fill="#bfbdaa" d="m167 180-3 1 2-2z"/><path fill="#81816d" d="m182 167-2 1zm-2 1-2 1zm-3 2-2 1zm7-4-2 1zm-6 3"/><path fill="#342518" d="M237 120c1 4 3 1 4 0l5 3h1l-2 3h-2l-1-1h-1l2 2-8 1-8-5 3-3zm-1 4 2 2 1-1z"/><path fill="#665132" d="m215 122-3-5 13-3v2l-1 3-2 3z"/><path fill="#3e3321" d="m222 122 2-3 6 1-4 3zm-7 0h3zm28 5-2-2h1z"/><path fill="#6e675e" d="m180 144 6-1v2z"/><path fill="#47433b" d="m185 141-6 2v-1l3-1z"/><path fill="#181b1a" d="m243 248-7 5h-2l5-17c2-6 6-14-1-20v-4l2-7q2-20-17-26l-8-5-6-3-1-2 1-3 24 8 3 2q17 16 17 38v5l-3 15-5 10zm1-33 1-2-2 1z"/><path fill="#121511" d="m257 238 4-6 5-5 4 5-10 12v2l-1 1h-2v-7z"/><path fill="#685748" d="m234 265-2-4h-3l14-11 5 2-6 8-1 2z"/><path fill="#433d33" d="M253 214q0-22-17-38l5 3q11 11 14 27z"/><path fill="#6e6555" d="M255 206q-2-16-14-27l-5-3v-2h4q11 9 17 25v4z"/><path fill="#2d2319" d="m242 260 6-8 9-12v7l-10 13z"/><path fill="#626159" d="m250 234 3-14c3 3 2 11-3 14"/><path fill="#685748" d="m243 248 2-4z"/><path fill="#282721" d="m270 232-4-5 1-4 3-12 2 2 2 14 6-3v-1l4 2 1-1c5 0 3 3 2 6l-6 3-7 2z"/><path fill="#2c2015" d="m284 225-4-2v1l-6 3-2-14v-4h14q5 7-1 15zm0-5q3-3 1-7l-7-1-1 4q0 6 7 4"/><path fill="#282721" d="M272 209v2h-2z"/><path fill="#25231e" d="m269 192-3 1 2-3z"/><path fill="#5b574e" d="m233 174-24-8h-3q0-5 5-3l20 5 5 6z"/><path fill="#1d1811" d="M206 166h3l-1 3-6 1-3-2 1-2z"/><path fill="#373733" d="m132 222 2 1v2q-4 1-3-3z"/><path fill="#25231e" d="M134 225v-2l3 1z"/><path fill="#5e5346" d="m155 224-3-13v5h-1l-2-6 2-9h3l2 4v3l-1 5v3l2 5v3z"/><path fill="#aaa497" d="M154 201h-3l3-10 2 1z"/><path fill="#a69a88" d="M155 224h2l8 19 1 4-9-11-1-7-1-2z"/><path fill="#5e5346" d="m155 227 1 2z"/><path fill="#252019" d="m166 247-1-4-8-19v-3l-2-5v-4l1-4v-2l1-3 1-4 3-7 1-2 6-6 7 4c-7-1-7-1-9 5l-2 5q-8 12 6 14 6-11 13-5l-2 1-6 2-1 1 1 5 6 6-6-2-8-2v-5l-2-1q-3 1-4 4 0 4 5 3l-1 2q-5 2-1 8l3 8q1 5 4 6l8-3 8-5v3q-9 3-11 12v4l-1 1-2-3-1-1z"/><path fill="#1d1811" d="M172 251h-1z"/><path fill="#10110d" d="m190 262-7-4 4-5 3-3h6l6 6v3l1 5-8-1h-2z"/><path fill="#1d1811" d="m190 250-3 3-4 5-7-4v-4h11z"/><path fill="#626159" d="M190 263h3l2 1h15v1h-17z"/><path fill="#3a3731" d="M210 265v-1l6-1v2z"/><path fill="#514636" d="m134 215 1 2z"/><path fill="#1d1811" d="m216 263-6 1h-7l-1-5 6-1-1-4-5 1-6-5h14l14-2q12-4 12-16v-8l-5-10 2-3 2-6c3-13-6-24-18-24l-5-1-3-3v-6l6 3 8 5q19 6 17 26l-2 7v4c7 6 3 14 1 20l-5 17-2 3-2 1-12 5z"/><path fill="#3a3731" d="m218 262 12-5zm14-6 2-3h2z"/><path fill="#685748" d="m228 262-1 1z"/><path fill="#1b140d" d="M242 260h4l-5 3v-1zm-2 5-3 2z"/><path fill="#373733" d="m270 232 4 3-12 13-3-1 1-1v-2z"/><path fill="#2e2e27" d="m259 247 3 1-8 10q-4 3-5 7l-2-5 10-13z"/><path fill="#8a704c" d="M213 113q1 0 0 0"/><path fill="#3e3a31" d="M160 173q1 0 0 0"/><path fill="#7e6543" d="M200 132q-1 1 0 0"/><path fill="#514636" d="m174 177 1-4 18-7v1l-8 4z"/><path fill="#433d33" d="m193 167 1 1z"/><path fill="#1d1811" d="M193 167h4v1q3 8-4 12h-1l-4-2q-7-1-3-7zm-3 8 2 2v-1z"/><path fill="#30261f" d="m197 168 3-1-1 2z"/><path fill="#433d33" d="M198 163q0 1 0 0"/><path fill="#30261f" d="M185 171q-4 6 3 7l3 2-3 1h-14l5 6-2 1h-2l-7-4v-2l6-5z"/><path fill="#968d82" d="m158 199-1 4-1 2-2-4v-1l2-8 5-6 1 4-1 2z"/><path fill="#3e3321" d="m237 124 2 1-1 1-2-2z"/><path fill="#30261f" d="M209 171v6l3 3h-9l-1-10 6-1z"/><path fill="#433d33" d="M233 174h3v2z"/><path fill="#aaa497" d="m244 215-1-1 2-1z"/><path fill="#323129" d="M270 211h2v2z"/><path fill="#927763" d="M283 221q-6 1-6-5l1-4 7 1q2 4-2 8"/><path fill="#1b140d" d="m202 170 1 10-6 1h-2l-2-1q7-4 4-12h2z"/><path fill="#514636" d="m155 216 2 5zm1-8-1 4zm0-3 1-1-1 2z"/><path fill="#141718" d="m187 235-8 5-8 3q-3-2-4-6l-3-8q-4-5 1-8l1-2 1-1 8 2 6 2 2 1z"/><path fill="#1f160f" d="m187 235-4-12 6 4h1l2 3 8 4h12q8 1 5-7l-2-2-17-1v-4l5-1 8 1 4 1q7-1 10 6 2 5-3 9l-2 2h-2l-2 1-23-1h-6z"/><path fill="#141718" d="M183 207q-7-6-13 5-14-2-6-14l2-5c2-6 2-6 9-5l3 3 8 8 1 8z"/><path fill="#321e13" d="M183 207h4q4-1 3-4l1-3 6 5h3l7 1v3l-1 1h-23l-2-2z"/><path fill="#3e291e" d="M198 220v4c-3 2-7-1-9 3l-6-4-2-1-6-6-1-5 3 3 2 2q5 5 11 3z"/><path fill="#8e7e71" d="m193 238 23 1h2l1 1h-18q-13-2-19 8l-2 1-4 1q3-9 11-12z"/><path fill="#626159" d="M167 218q-5 1-5-3 1-3 4-4l2 1z"/><path fill="#3e291e" d="m181 208 1 2h-7z"/><path fill="#514636" d="m158 199 3-7z"/><path fill="#cfa48c" d="M175 210h2v4l-2-3z"/><path fill="#806654" d="M182 248q6-10 19-8l-3 6-2 4h-6l-3-1z"/><path fill="#6e675e" d="m202 256 5-2 1 4-6 1z"/><path fill="#3a3731" d="M195 263h-2z"/><path fill="#685748" d="m182 248 5 1-7 1z"/><path fill="#927763" d="M205 210h7q11-1 12-7a9 9 0 0 0-5-11l-7-1-7-1 4-4 3-4 4-1c12 0 21 11 18 24l-2 1q-4 5-11 6l-11 6v2l-8-1z"/><path fill="#725f50" d="M211 220v-2h5q10 0 12 9 2 5 8 5 0 12-13 16v-5l-4-3-1-1v-1h2l3-2q4-4 2-9-3-7-10-6z"/><path fill="#685748" d="m219 240 4 3v5l-13 2h-14l2-4 3-6z"/><path fill="#826b56" d="M236 232q-6 0-8-5-2-9-11-9l8-4 11 10z"/><path fill="#826d5d" d="m236 224-11-10-9 4h-5l11-6q7-1 11-6l2-1-2 6-2 3z"/><path fill="#ae9c78" d="m217 181-4 1-7 1h-9v-2z"/><path fill="#826b56" d="M231 214q0-2 2-3z"/><path fill="#514636" d="m193 180 2 1-2 1h-3l-2-1 4-1z"/><path fill="#1b140d" d="m190 175 2 1v1z"/><path fill="#321e13" d="M206 191h7l-1 5h-24l-10-5-1-3 2-1 4 3h7l7 1z"/><path fill="#e2c3a7" d="m183 190-4-3-5-6 16 1z"/><path fill="#252019" d="m177 188 1 3-3-3z"/><path fill="#dbbe8a" d="m183 190 7-8h3l2-1h2v2l-7 7z"/><path fill="#806654" d="M217 227q4 8-5 7h-12l-7-4 21-1z"/><path fill="#a9806a" d="m205 210-2 9-5 1-8-1 3-2q5-1 5-7z"/><path fill="#a17e67" d="m217 227-3 2-21 1-3-3 15-1 10-1z"/><path fill="#a69a88" d="m215 225-10 1-15 1h-1c2-4 6-1 9-2z"/><path fill="#252019" d="m222 236-2 2zm-29 2h-2zm25 0h-2zm-40-47 10 5 2 4v3q2 3-3 4l-1-8z"/><path fill="#1b140d" d="m212 196 1-5 7 1a9 9 0 0 1 5 11q-2 6-12 7l-6-1v-3h4q6 1 7-5 0-5-5-5z"/><path fill="#cfa48c" d="M197 210q1 6-4 7l-3 2q-6 2-10-3 7 0 10-6z"/><path fill="#786754" d="M213 196q5 0 5 5-1 6-7 5h-4l-6-1q8-2 12-9"/><path fill="#c0977e" d="m191 200-3-4h16l-7 9z"/><path fill="#a17e67" d="m197 205 8-9h8q-3 7-13 9z"/><path fill="#e2c3a7" d="M190 210q-3 6-11 6l-2-2v-3l6-1z"/><path fill="#3e291e" d="m207 209 6 1h-7z"/><path fill="#a17e67" d="M206 190h-4l4-7 7-1-3 4z"/><path fill="#c0977e" d="m190 190 7-7h5l-5 8z"/><path fill="#a9806a" d="m197 191 5-8h4l-4 7z"/></svg>